<mxfile host="app.diagrams.net" agent="Mozilla/5.0 (Windows NT 10.0; Win64; x64) AppleWebKit/537.36 (KHTML, like Gecko) Chrome/137.0.0.0 Safari/537.36" version="27.0.6">
  <diagram name="Page-1" id="_znIWGn0NRvZD12v937m">
    <mxGraphModel dx="1426" dy="777" grid="1" gridSize="10" guides="1" tooltips="1" connect="1" arrows="1" fold="1" page="1" pageScale="1" pageWidth="850" pageHeight="1100" math="0" shadow="0">
      <root>
        <mxCell id="0" />
        <mxCell id="1" parent="0" />
        <mxCell id="SibHaGJLhybgC71BaYIT-1" value="" style="rounded=0;whiteSpace=wrap;html=1;" vertex="1" parent="1">
          <mxGeometry x="80" y="40" width="740" height="890" as="geometry" />
        </mxCell>
        <mxCell id="SibHaGJLhybgC71BaYIT-2" value="&lt;h1&gt;&lt;font style=&quot;font-size: 25px;&quot; data-font-src=&quot;https://fonts.googleapis.com/css?family=Roboto&quot; face=&quot;Roboto&quot;&gt;Board Game Reviews&lt;/font&gt;&lt;/h1&gt;" style="text;html=1;align=center;verticalAlign=middle;whiteSpace=wrap;rounded=0;" vertex="1" parent="1">
          <mxGeometry x="170" y="60" width="590" height="30" as="geometry" />
        </mxCell>
        <mxCell id="SibHaGJLhybgC71BaYIT-3" value="&lt;font data-font-src=&quot;https://fonts.googleapis.com/css?family=Roboto&quot; face=&quot;Roboto&quot;&gt;This is A website dedicated to reviewing and discussing board games of all kinds.&lt;/font&gt;" style="text;html=1;align=center;verticalAlign=middle;whiteSpace=wrap;rounded=0;" vertex="1" parent="1">
          <mxGeometry x="170" y="90" width="590" height="30" as="geometry" />
        </mxCell>
        <mxCell id="SibHaGJLhybgC71BaYIT-5" value="Website View" style="text;html=1;align=center;verticalAlign=middle;whiteSpace=wrap;rounded=0;" vertex="1" parent="1">
          <mxGeometry x="80" y="40" width="60" height="30" as="geometry" />
        </mxCell>
        <mxCell id="SibHaGJLhybgC71BaYIT-6" value="" style="rounded=1;whiteSpace=wrap;html=1;" vertex="1" parent="1">
          <mxGeometry x="140" y="135" width="630" height="205" as="geometry" />
        </mxCell>
        <mxCell id="SibHaGJLhybgC71BaYIT-12" value="" style="verticalLabelPosition=bottom;verticalAlign=top;html=1;shape=mxgraph.basic.patternFillRect;fillStyle=diagGrid;step=5;fillStrokeWidth=0.2;fillStrokeColor=#dddddd;" vertex="1" parent="1">
          <mxGeometry x="170" y="150" width="160" height="150" as="geometry" />
        </mxCell>
        <mxCell id="SibHaGJLhybgC71BaYIT-13" value="website image" style="text;html=1;align=center;verticalAlign=middle;whiteSpace=wrap;rounded=0;" vertex="1" parent="1">
          <mxGeometry x="220" y="210" width="60" height="30" as="geometry" />
        </mxCell>
        <mxCell id="SibHaGJLhybgC71BaYIT-14" value="Name of the game" style="swimlane;fontStyle=0;childLayout=stackLayout;horizontal=1;startSize=30;horizontalStack=0;resizeParent=1;resizeParentMax=0;resizeLast=0;collapsible=1;marginBottom=0;whiteSpace=wrap;html=1;" vertex="1" parent="1">
          <mxGeometry x="355" y="150" width="345" height="120" as="geometry" />
        </mxCell>
        <mxCell id="SibHaGJLhybgC71BaYIT-15" value="What kind of board game is it?" style="text;strokeColor=none;fillColor=none;align=left;verticalAlign=middle;spacingLeft=4;spacingRight=4;overflow=hidden;points=[[0,0.5],[1,0.5]];portConstraint=eastwest;rotatable=0;whiteSpace=wrap;html=1;" vertex="1" parent="SibHaGJLhybgC71BaYIT-14">
          <mxGeometry y="30" width="345" height="30" as="geometry" />
        </mxCell>
        <mxCell id="SibHaGJLhybgC71BaYIT-16" value="How do I play the board game?" style="text;strokeColor=none;fillColor=none;align=left;verticalAlign=middle;spacingLeft=4;spacingRight=4;overflow=hidden;points=[[0,0.5],[1,0.5]];portConstraint=eastwest;rotatable=0;whiteSpace=wrap;html=1;" vertex="1" parent="SibHaGJLhybgC71BaYIT-14">
          <mxGeometry y="60" width="345" height="30" as="geometry" />
        </mxCell>
        <mxCell id="SibHaGJLhybgC71BaYIT-17" value="What are the rules of the game?" style="text;strokeColor=none;fillColor=none;align=left;verticalAlign=middle;spacingLeft=4;spacingRight=4;overflow=hidden;points=[[0,0.5],[1,0.5]];portConstraint=eastwest;rotatable=0;whiteSpace=wrap;html=1;" vertex="1" parent="SibHaGJLhybgC71BaYIT-14">
          <mxGeometry y="90" width="345" height="30" as="geometry" />
        </mxCell>
        <mxCell id="SibHaGJLhybgC71BaYIT-18" value="" style="rounded=1;whiteSpace=wrap;html=1;" vertex="1" parent="1">
          <mxGeometry x="140" y="380" width="630" height="210" as="geometry" />
        </mxCell>
        <mxCell id="SibHaGJLhybgC71BaYIT-21" value="Name of the game" style="swimlane;fontStyle=0;childLayout=stackLayout;horizontal=1;startSize=30;horizontalStack=0;resizeParent=1;resizeParentMax=0;resizeLast=0;collapsible=1;marginBottom=0;whiteSpace=wrap;html=1;" vertex="1" parent="1">
          <mxGeometry x="350" y="410" width="350" height="120" as="geometry" />
        </mxCell>
        <mxCell id="SibHaGJLhybgC71BaYIT-22" value="What kind of board game is it?" style="text;strokeColor=none;fillColor=none;align=left;verticalAlign=middle;spacingLeft=4;spacingRight=4;overflow=hidden;points=[[0,0.5],[1,0.5]];portConstraint=eastwest;rotatable=0;whiteSpace=wrap;html=1;" vertex="1" parent="SibHaGJLhybgC71BaYIT-21">
          <mxGeometry y="30" width="350" height="30" as="geometry" />
        </mxCell>
        <mxCell id="SibHaGJLhybgC71BaYIT-23" value="How do I play the board game?" style="text;strokeColor=none;fillColor=none;align=left;verticalAlign=middle;spacingLeft=4;spacingRight=4;overflow=hidden;points=[[0,0.5],[1,0.5]];portConstraint=eastwest;rotatable=0;whiteSpace=wrap;html=1;" vertex="1" parent="SibHaGJLhybgC71BaYIT-21">
          <mxGeometry y="60" width="350" height="30" as="geometry" />
        </mxCell>
        <mxCell id="SibHaGJLhybgC71BaYIT-24" value="What are the rules of the game?" style="text;strokeColor=none;fillColor=none;align=left;verticalAlign=middle;spacingLeft=4;spacingRight=4;overflow=hidden;points=[[0,0.5],[1,0.5]];portConstraint=eastwest;rotatable=0;whiteSpace=wrap;html=1;" vertex="1" parent="SibHaGJLhybgC71BaYIT-21">
          <mxGeometry y="90" width="350" height="30" as="geometry" />
        </mxCell>
        <mxCell id="SibHaGJLhybgC71BaYIT-26" value="" style="rounded=1;whiteSpace=wrap;html=1;" vertex="1" parent="1">
          <mxGeometry x="140" y="640" width="630" height="210" as="geometry" />
        </mxCell>
        <mxCell id="SibHaGJLhybgC71BaYIT-27" value="" style="verticalLabelPosition=bottom;verticalAlign=top;html=1;shape=mxgraph.basic.patternFillRect;fillStyle=diagGrid;step=5;fillStrokeWidth=0.2;fillStrokeColor=#dddddd;" vertex="1" parent="1">
          <mxGeometry x="170" y="410" width="160" height="150" as="geometry" />
        </mxCell>
        <mxCell id="SibHaGJLhybgC71BaYIT-28" value="website image" style="text;html=1;align=center;verticalAlign=middle;whiteSpace=wrap;rounded=0;" vertex="1" parent="1">
          <mxGeometry x="220" y="470" width="60" height="30" as="geometry" />
        </mxCell>
        <mxCell id="SibHaGJLhybgC71BaYIT-29" value="" style="verticalLabelPosition=bottom;verticalAlign=top;html=1;shape=mxgraph.basic.patternFillRect;fillStyle=diagGrid;step=5;fillStrokeWidth=0.2;fillStrokeColor=#dddddd;" vertex="1" parent="1">
          <mxGeometry x="170" y="660" width="160" height="150" as="geometry" />
        </mxCell>
        <mxCell id="SibHaGJLhybgC71BaYIT-30" value="website image" style="text;html=1;align=center;verticalAlign=middle;whiteSpace=wrap;rounded=0;" vertex="1" parent="1">
          <mxGeometry x="220" y="720" width="60" height="30" as="geometry" />
        </mxCell>
        <mxCell id="SibHaGJLhybgC71BaYIT-31" value="Name of the game" style="swimlane;fontStyle=0;childLayout=stackLayout;horizontal=1;startSize=30;horizontalStack=0;resizeParent=1;resizeParentMax=0;resizeLast=0;collapsible=1;marginBottom=0;whiteSpace=wrap;html=1;" vertex="1" parent="1">
          <mxGeometry x="355" y="670" width="345" height="120" as="geometry" />
        </mxCell>
        <mxCell id="SibHaGJLhybgC71BaYIT-32" value="What kind of board game is it?" style="text;strokeColor=none;fillColor=none;align=left;verticalAlign=middle;spacingLeft=4;spacingRight=4;overflow=hidden;points=[[0,0.5],[1,0.5]];portConstraint=eastwest;rotatable=0;whiteSpace=wrap;html=1;" vertex="1" parent="SibHaGJLhybgC71BaYIT-31">
          <mxGeometry y="30" width="345" height="30" as="geometry" />
        </mxCell>
        <mxCell id="SibHaGJLhybgC71BaYIT-33" value="How di I play the game?" style="text;strokeColor=none;fillColor=none;align=left;verticalAlign=middle;spacingLeft=4;spacingRight=4;overflow=hidden;points=[[0,0.5],[1,0.5]];portConstraint=eastwest;rotatable=0;whiteSpace=wrap;html=1;" vertex="1" parent="SibHaGJLhybgC71BaYIT-31">
          <mxGeometry y="60" width="345" height="30" as="geometry" />
        </mxCell>
        <mxCell id="SibHaGJLhybgC71BaYIT-34" value="What are the rules of the game?" style="text;strokeColor=none;fillColor=none;align=left;verticalAlign=middle;spacingLeft=4;spacingRight=4;overflow=hidden;points=[[0,0.5],[1,0.5]];portConstraint=eastwest;rotatable=0;whiteSpace=wrap;html=1;" vertex="1" parent="SibHaGJLhybgC71BaYIT-31">
          <mxGeometry y="90" width="345" height="30" as="geometry" />
        </mxCell>
        <mxCell id="SibHaGJLhybgC71BaYIT-35" value="Footer Information" style="text;html=1;align=center;verticalAlign=middle;whiteSpace=wrap;rounded=0;" vertex="1" parent="1">
          <mxGeometry x="80" y="900" width="740" height="30" as="geometry" />
        </mxCell>
        <mxCell id="SibHaGJLhybgC71BaYIT-36" value="" style="line;strokeWidth=4;html=1;perimeter=backbonePerimeter;points=[];outlineConnect=0;" vertex="1" parent="1">
          <mxGeometry x="80" y="900" width="740" height="10" as="geometry" />
        </mxCell>
      </root>
    </mxGraphModel>
  </diagram>
</mxfile>
